<?xml version="1.0" encoding="UTF-8"?>
<svg viewBox="0 0 794 1123" width="794" height="1123"
     xmlns="http://www.w3.org/2000/svg"
     xmlns:xlink="http://www.w3.org/1999/xlink">
  <title>FP IV-14.8 Arguments sourc&#233;s pour d&#233;fendre Scrum</title>
  <defs>
    <style>@import url('https://fonts.googleapis.com/css2?family=EB+Garamond:ital,wght@0,400;1,400&amp;display=swap');</style>
  </defs>
  <rect x="0" y="0" width="794" height="1123" fill="#ffffff"/>

  <rect x="0" y="0" width="54" height="1123" fill="#febd10"/>
  <g transform="translate(27,80)">
    <circle cx="0" cy="0" r="20" fill="none" stroke="#0f2240" stroke-width="1.5"/>
    <circle cx="0" cy="0" r="14" fill="none" stroke="#0f2240" stroke-width="1.2"/>
    <circle cx="0" cy="0" r="8"  fill="none" stroke="#0f2240" stroke-width="1"/>
    <circle cx="0" cy="0" r="3"  fill="#0f2240"/>
    <ellipse cx="0" cy="-30" rx="5" ry="6" fill="#0f2240"/>
    <line x1="0" y1="-24" x2="0" y2="-10" stroke="#0f2240" stroke-width="2.5"/>
    <line x1="-8" y1="-20" x2="8" y2="-20" stroke="#0f2240" stroke-width="2"/>
    <line x1="0" y1="-10" x2="-6" y2="2"  stroke="#0f2240" stroke-width="2"/>
    <line x1="0" y1="-10" x2="6"  y2="2"  stroke="#0f2240" stroke-width="2"/>
  </g>
  <text transform="translate(17,1050) rotate(-90)"
        font-family="Georgia,serif" font-size="10" font-weight="bold"
        fill="#0f2240" letter-spacing="2">LE SYST&#200;ME S.A.L.I.M.</text>
  <rect x="54" y="0" width="740" height="75" fill="#ffffff"/>
  <text x="72" y="22" font-family="Helvetica,Arial,sans-serif" font-size="8" fill="#bbbbbb" letter-spacing="1">RELATION MANAGER > ARGUMENTS</text>
  <rect x="695" y="8" width="90" height="22" rx="11" fill="#febd10"/>
  <text x="740" y="23" text-anchor="middle" font-family="Helvetica,Arial,sans-serif" font-size="9" font-weight="bold" fill="#0f2240">FP IV-14.8</text>
  <line x1="72" y1="30" x2="748" y2="30" stroke="#febd10" stroke-width="1"/>
  <text x="72" y="58" font-family="Georgia,serif" font-size="24" font-weight="bold" fill="#0f2240">Arguments sourc&#233;s pour d&#233;fendre Scrum</text>
  <text x="72" y="74" font-family="Georgia,serif" font-size="10" font-style="italic" fill="#febd10">3 arguments chiffr&#233;s pour convaincre sans opinons agiles.</text>
  <rect x="54" y="78" width="740" height="68" fill="#febd10"/>
  <text x="72" y="96" font-family="Helvetica,Arial,sans-serif" font-size="7" font-weight="bold" fill="#0f2240" letter-spacing="1">POUR QUI</text>
  <text x="72" y="110" font-family="Georgia,serif" font-size="8" font-style="italic" fill="#0f2240" opacity="0.85">SM, CA, MG</text>
  <line x1="252" y1="85" x2="252" y2="138" stroke="#0f2240" stroke-width="0.5" opacity="0.3"/>
  <text x="257" y="96" font-family="Helvetica,Arial,sans-serif" font-size="7" font-weight="bold" fill="#0f2240" letter-spacing="1">QUOI</text>
  <text x="257" y="110" font-family="Georgia,serif" font-size="8" font-style="italic" fill="#0f2240" opacity="0.85">Porter</text>
  <text x="257" y="122" font-family="Georgia,serif" font-size="8" font-style="italic" fill="#0f2240" opacity="0.85">l&#8217;investissement</text>
  <text x="257" y="134" font-family="Georgia,serif" font-size="8" font-style="italic" fill="#0f2240" opacity="0.85">Scrum devant une direction</text>
  <line x1="437" y1="85" x2="437" y2="138" stroke="#0f2240" stroke-width="0.5" opacity="0.3"/>
  <text x="442" y="96" font-family="Helvetica,Arial,sans-serif" font-size="7" font-weight="bold" fill="#0f2240" letter-spacing="1">QUAND L&#39;UTILISER</text>
  <text x="442" y="110" font-family="Georgia,serif" font-size="8" font-style="italic" fill="#0f2240" opacity="0.85">En comit&#233; de</text>
  <text x="442" y="122" font-family="Georgia,serif" font-size="8" font-style="italic" fill="#0f2240" opacity="0.85">direction, en r&#233;union</text>
  <text x="442" y="134" font-family="Georgia,serif" font-size="8" font-style="italic" fill="#0f2240" opacity="0.85">de budget, avant une</text>
  <line x1="622" y1="85" x2="622" y2="138" stroke="#0f2240" stroke-width="0.5" opacity="0.3"/>
  <text x="627" y="96" font-family="Helvetica,Arial,sans-serif" font-size="7" font-weight="bold" fill="#0f2240" letter-spacing="1">VALEUR APPORT&#201;E</text>
  <text x="627" y="110" font-family="Georgia,serif" font-size="8" font-style="italic" fill="#0f2240" opacity="0.85">Des donn&#233;es</text>
  <text x="627" y="122" font-family="Georgia,serif" font-size="8" font-style="italic" fill="#0f2240" opacity="0.85">r&#233;elles, pas des</text>
  <text x="627" y="134" font-family="Georgia,serif" font-size="8" font-style="italic" fill="#0f2240" opacity="0.85">principes. Le</text>

  <rect x="72" y="162" width="676" height="260" fill="#fafaf7" rx="4"/>
  <rect x="72" y="162" width="676" height="28" fill="#0f2240" rx="4"/>
  <rect x="72" y="178" width="676" height="12" fill="#0f2240"/>
  <text x="86" y="181" font-family="Helvetica,Arial,sans-serif" font-size="12" font-weight="bold" fill="#febd10">1</text>
  <text x="106" y="180" font-family="Georgia,serif" font-size="9.5" font-weight="bold" fill="#ffffff">Les &#233;quipes qui livrent fr&#233;quemment ont moins</text>
  <rect x="478" y="194" width="266" height="16" rx="4" fill="#febd10"/>
  <text x="611" y="205" text-anchor="middle" font-family="Helvetica,Arial,sans-serif" font-size="7.5" font-weight="bold" fill="#0f2240">DORA 2024 (dora.dev)</text>
  <text x="82" y="200" font-family="Helvetica,Arial,sans-serif" font-size="7" font-weight="bold" fill="#bbbbbb" letter-spacing="1">DONNÉES CLÉS</text>
  <circle cx="86" cy="216" r="3" fill="#febd10"/>
  <text x="96" y="220" font-family="Georgia,serif" font-size="8.5" fill="#0f2240">&#201;quipes &#233;lite : d&#233;ploiement &#224; la demande,</text>
  <circle cx="86" cy="234" r="3" fill="#febd10"/>
  <text x="96" y="238" font-family="Georgia,serif" font-size="8.5" fill="#0f2240">Taux d&#8217;&#233;chec < 5 %, r&#233;tablissement < 1 heure</text>
  <circle cx="86" cy="252" r="3" fill="#febd10"/>
  <text x="96" y="256" font-family="Georgia,serif" font-size="8.5" fill="#0f2240">&#201;quipes faible perf : d&#233;ploiement mensuel, taux</text>
  <circle cx="86" cy="270" r="3" fill="#febd10"/>
  <text x="96" y="274" font-family="Georgia,serif" font-size="8.5" fill="#0f2240">&#201;cart de d&#233;ploiement : 182 fois entre &#233;lite et</text>
  <line x1="80" y1="376" x2="740" y2="376" stroke="#febd10" stroke-width="0.5"/>
  <text x="82" y="390" font-family="Georgia,serif" font-size="8.5" font-style="italic" fill="#0f2240" opacity="0.8">La cadence de livraison et la stabilit&#233; ne sont pas une opinion agile.</text>
  <text x="82" y="404" font-family="Georgia,serif" font-size="8.5" font-style="italic" fill="#0f2240" opacity="0.8">C&#8217;est une mesure sur donn&#233;es r&#233;elles.</text>
  <rect x="72" y="432" width="676" height="260" fill="#fafaf7" rx="4"/>
  <rect x="72" y="432" width="676" height="28" fill="#0f2240" rx="4"/>
  <rect x="72" y="448" width="676" height="12" fill="#0f2240"/>
  <text x="86" y="451" font-family="Helvetica,Arial,sans-serif" font-size="12" font-weight="bold" fill="#febd10">2</text>
  <text x="106" y="450" font-family="Georgia,serif" font-size="9.5" font-weight="bold" fill="#ffffff">L&#8217;absence de s&#233;curit&#233; psychologique co&#251;te</text>
  <rect x="478" y="464" width="266" height="16" rx="4" fill="#febd10"/>
  <text x="611" y="475" text-anchor="middle" font-family="Helvetica,Arial,sans-serif" font-size="7.5" font-weight="bold" fill="#0f2240">Project Aristotle (Google, 2015)</text>
  <text x="82" y="470" font-family="Helvetica,Arial,sans-serif" font-size="7" font-weight="bold" fill="#bbbbbb" letter-spacing="1">DONNÉES CLÉS</text>
  <circle cx="86" cy="486" r="3" fill="#febd10"/>
  <text x="96" y="490" font-family="Georgia,serif" font-size="8.5" fill="#0f2240">S&#233;curit&#233; psychologique : facteur n°1 de performance</text>
  <circle cx="86" cy="504" r="3" fill="#febd10"/>
  <text x="96" y="508" font-family="Georgia,serif" font-size="8.5" fill="#0f2240">Devant les comp&#233;tences individuelles et les processus</text>
  <circle cx="86" cy="522" r="3" fill="#febd10"/>
  <text x="96" y="526" font-family="Georgia,serif" font-size="8.5" fill="#0f2240">Remplacement d&#8217;un dev : 6 &#224; 9 mois de salaire</text>
  <circle cx="86" cy="540" r="3" fill="#febd10"/>
  <text x="96" y="544" font-family="Georgia,serif" font-size="8.5" fill="#0f2240">Une &#233;quipe en turnover permanent d&#233;truit de la</text>
  <line x1="80" y1="646" x2="740" y2="646" stroke="#febd10" stroke-width="0.5"/>
  <text x="82" y="660" font-family="Georgia,serif" font-size="8.5" font-style="italic" fill="#0f2240" opacity="0.8">Une &#233;quipe psychologiquement s&#251;re qui conserve ses membres cr&#233;e</text>
  <text x="82" y="674" font-family="Georgia,serif" font-size="8.5" font-style="italic" fill="#0f2240" opacity="0.8">de la valeur continue.</text>
  <rect x="72" y="702" width="676" height="260" fill="#fafaf7" rx="4"/>
  <rect x="72" y="702" width="676" height="28" fill="#0f2240" rx="4"/>
  <rect x="72" y="718" width="676" height="12" fill="#0f2240"/>
  <text x="86" y="721" font-family="Helvetica,Arial,sans-serif" font-size="12" font-weight="bold" fill="#febd10">3</text>
  <text x="106" y="720" font-family="Georgia,serif" font-size="9.5" font-weight="bold" fill="#ffffff">52 % des organisations ne connectent pas leur delivery aux</text>
  <rect x="478" y="734" width="266" height="16" rx="4" fill="#febd10"/>
  <text x="611" y="745" text-anchor="middle" font-family="Helvetica,Arial,sans-serif" font-size="7.5" font-weight="bold" fill="#0f2240">18e State of Agile Report (Digital.ai, 2025)</text>
  <text x="82" y="740" font-family="Helvetica,Arial,sans-serif" font-size="7" font-weight="bold" fill="#bbbbbb" letter-spacing="1">DONNÉES CLÉS</text>
  <circle cx="86" cy="756" r="3" fill="#febd10"/>
  <text x="96" y="760" font-family="Georgia,serif" font-size="8.5" fill="#0f2240">Probl&#232;me central que Le Syst&#232;me S.A.L.I.M. est</text>
  <circle cx="86" cy="774" r="3" fill="#febd10"/>
  <text x="96" y="778" font-family="Georgia,serif" font-size="8.5" fill="#0f2240">La Boucle OKR Vivante connecte delivery et objectifs business</text>
  <circle cx="86" cy="792" r="3" fill="#febd10"/>
  <text x="96" y="796" font-family="Georgia,serif" font-size="8.5" fill="#0f2240">Le Dashboard 6 cadrans rend la connexion visible en temps</text>
  <circle cx="86" cy="810" r="3" fill="#febd10"/>
  <text x="96" y="814" font-family="Georgia,serif" font-size="8.5" fill="#0f2240">Les DORA Metrics fournissent les indicateurs de mesure</text>
  <line x1="80" y1="916" x2="740" y2="916" stroke="#febd10" stroke-width="0.5"/>
  <text x="82" y="930" font-family="Georgia,serif" font-size="8.5" font-style="italic" fill="#0f2240" opacity="0.8">Ce n&#8217;est pas un argument de vente. C&#8217;est le probl&#232;me central</text>
  <text x="82" y="944" font-family="Georgia,serif" font-size="8.5" font-style="italic" fill="#0f2240" opacity="0.8">que ce livre r&#233;sout.</text>
  <line x1="72" y1="1078" x2="748" y2="1078" stroke="#febd10" stroke-width="1"/>
  <rect x="372" y="1083" width="50" height="18" rx="9" fill="#0f2240"/>
  <text x="397" y="1095" text-anchor="middle" font-family="Helvetica,Arial,sans-serif" font-size="8" font-weight="bold" fill="#febd10">IV-14.8</text>
  <text x="72" y="1095" font-family="Helvetica,Arial,sans-serif" font-size="7" fill="#bbbbbb">SOURCE : Le Syst&#232;me S.A.L.I.M.</text>
  <text x="748" y="1095" text-anchor="end" font-family="Helvetica,Arial,sans-serif" font-size="7" fill="#bbbbbb">Chapitre 14 · Partie 4</text>
</svg>